<svg width="40" height="40" viewBox="0 0 40 40" fill="none" xmlns="http://www.w3.org/2000/svg">
<path d="M16.6785 3.50628C14.3426 2.7501 11.8032 3.80193 10.6861 5.98843L9.34313 8.61705C9.18356 8.92938 8.92954 9.1834 8.61721 9.34297L5.98859 10.6859C3.80209 11.803 2.75026 14.3424 3.50644 16.6783L4.41554 19.4867C4.52356 19.8203 4.52356 20.1797 4.41554 20.5133L3.50644 23.3217C2.75026 25.6577 3.80209 28.197 5.98859 29.3142L8.61721 30.657C8.92954 30.8167 9.18356 31.0707 9.34313 31.383L10.6861 34.0117C11.8032 36.1982 14.3426 37.25 16.6785 36.4938L19.4868 35.5847C19.8205 35.4767 20.1798 35.4767 20.5135 35.5847L23.3218 36.4938C25.6578 37.25 28.1972 36.1982 29.3143 34.0117L30.6572 31.383C30.8168 31.0707 31.0708 30.8167 31.3832 30.657L34.0118 29.3142C36.1983 28.197 37.2502 25.6577 36.494 23.3217L35.5848 20.5133C35.4768 20.1797 35.4768 19.8203 35.5848 19.4867L36.494 16.6783C37.2502 14.3424 36.1983 11.803 34.0118 10.6859L31.3832 9.34297C31.0708 9.1834 30.8168 8.92938 30.6572 8.61705L29.3143 5.98843C28.1972 3.80193 25.6578 2.7501 23.3218 3.50628L20.5135 4.41538C20.1798 4.52338 19.8205 4.5234 19.4868 4.41538L16.6785 3.50628ZM11.2664 19.5955L13.6235 17.2383L18.3375 21.9525L27.7657 12.5244L30.1227 14.8814L18.3375 26.6665L11.2664 19.5955Z" fill="black"/>
</svg>
