<svg width="44" height="40" viewBox="0 0 44 40" fill="none" xmlns="http://www.w3.org/2000/svg">
<path d="M23.8496 0L23.8484 2.69053L34.3759 6.20191L42.0233 3.65282L43.3547 7.64728L36.9726 9.77473L43.489 27.6945C41.1903 30.0886 37.9572 31.5789 34.3759 31.5789C30.7949 31.5789 27.5618 30.0886 25.2631 27.6945L31.7768 9.77473L23.8484 7.13052V35.7895H32.2707V40H11.2181V35.7895H19.6378V7.13052L11.7095 9.77473L18.2258 27.6945C15.9271 30.0886 12.694 31.5789 9.11288 31.5789C5.53175 31.5789 2.29867 30.0886 0 27.6945L6.51368 9.77473L0.134126 7.64728L1.4656 3.65282L9.11288 6.20191L19.6378 2.69053L19.6391 0H23.8496ZM34.3759 14.953L31.3915 23.1579H37.3599L34.3759 14.953ZM9.11288 14.953L6.12842 23.1579H12.0968L9.11288 14.953Z" fill="black"/>
</svg>
