<svg width="36" height="28" viewBox="0 0 36 28" fill="none" xmlns="http://www.w3.org/2000/svg">
<path d="M27.625 8H35.75V10.6667H27.625V8ZM24.375 14.6667H35.75V17.3333H24.375V14.6667ZM29.25 21.3333H35.75V24H29.25V21.3333ZM0 28C0 22.1089 5.82029 17.3333 13 17.3333C20.1797 17.3333 26 22.1089 26 28H22.75C22.75 23.5817 18.3848 20 13 20C7.61522 20 3.25 23.5817 3.25 28H0ZM13 16C7.61312 16 3.25 12.42 3.25 8C3.25 3.58 7.61312 0 13 0C18.3869 0 22.75 3.58 22.75 8C22.75 12.42 18.3869 16 13 16ZM13 13.3333C16.5912 13.3333 19.5 10.9467 19.5 8C19.5 5.05333 16.5912 2.66667 13 2.66667C9.40875 2.66667 6.5 5.05333 6.5 8C6.5 10.9467 9.40875 13.3333 13 13.3333Z" fill="black"/>
</svg>
