<svg width="50" height="50" viewBox="0 0 50 50" fill="none" xmlns="http://www.w3.org/2000/svg">
<path d="M27.731 42.4994C26.8414 42.6369 25.9299 42.7083 25.002 42.7083C15.2219 42.7083 7.29362 34.78 7.29362 25C7.29362 24.0719 7.36499 23.1606 7.5026 22.271C6.70391 20.7522 6.25195 19.0226 6.25195 17.1875C6.25195 11.1469 11.1488 6.25 17.1895 6.25C19.0246 6.25 20.7542 6.70196 22.273 7.50065C23.1624 7.36306 24.0739 7.29167 25.002 7.29167C34.782 7.29167 42.7103 15.22 42.7103 25C42.7103 25.9281 42.6389 26.8394 42.5014 27.729C43.2999 29.2477 43.752 30.9773 43.752 32.8125C43.752 38.8531 38.8551 43.75 32.8145 43.75C30.9793 43.75 29.2497 43.2981 27.731 42.4994ZM25.1107 35.7406L25.0262 35.7421C31.0112 35.7421 33.9912 32.8548 33.9912 28.9858C33.9912 26.4892 32.8426 23.8375 28.3132 22.8233L24.1818 21.9062C22.6087 21.5485 20.8023 21.0719 20.8023 19.5828C20.8023 18.0937 22.0918 17.0563 24.3932 17.0563C29.0403 17.0563 28.6155 20.2391 30.9172 20.2391C32.1157 20.2391 33.1937 19.5266 33.1937 18.3016C33.1937 15.4484 28.6155 13.3031 24.7443 13.3031C20.5328 13.3031 16.0503 15.0906 16.0503 19.8516C16.0503 22.1406 16.8698 24.5812 21.382 25.7125L26.9847 27.111C28.6845 27.5312 29.106 28.4829 29.106 29.3438C29.106 30.775 27.6818 32.1733 25.1107 32.1733C20.0753 32.1733 20.7803 28.3031 18.0808 28.3031C16.8713 28.3031 15.9924 29.1327 15.9924 30.3281C15.9924 32.6483 18.8078 35.7406 25.1107 35.7406Z" fill="black"/>
</svg>
