<svg width="22" height="22" viewBox="0 0 22 22" fill="none" xmlns="http://www.w3.org/2000/svg">
<g clip-path="url(#clip0_62_206)">
<path d="M5.5 6.41667C6.08693 5.82974 6.88298 5.50001 7.71303 5.50001H10.6203C11.4503 5.50001 12.2464 5.82974 12.8333 6.41667C13.4203 7.00361 14.2163 7.33334 15.0464 7.33334H17.4167C17.9229 7.33334 18.3333 7.74375 18.3333 8.25001V21.0833C18.3333 21.5896 17.9229 22 17.4167 22H0.916666C0.41041 22 0 21.5896 0 21.0833V8.25001C0 7.74375 0.41041 7.33334 0.916666 7.33334H3.28697C4.11702 7.33334 4.91307 7.00361 5.5 6.41667ZM9.16666 20.1667C12.2042 20.1667 14.6667 17.7042 14.6667 14.6667C14.6667 11.6291 12.2042 9.16667 9.16666 9.16667C6.1291 9.16667 3.66667 11.6291 3.66667 14.6667C3.66667 17.7042 6.1291 20.1667 9.16666 20.1667ZM9.16666 18.3333C7.14162 18.3333 5.5 16.6917 5.5 14.6667C5.5 12.6417 7.14162 11 9.16666 11C11.1917 11 12.8333 12.6417 12.8333 14.6667C12.8333 16.6917 11.1917 18.3333 9.16666 18.3333Z" fill="black"/>
</g>
<defs>
<clipPath id="clip0_62_206">
<rect width="21.3333" height="21.3333" fill="white" transform="scale(1.03125)"/>
</clipPath>
</defs>
</svg>
