<svg width="40" height="40" viewBox="0 0 40 40" fill="none" xmlns="http://www.w3.org/2000/svg">
<path d="M20.0002 36.6667C10.7954 36.6667 3.3335 29.2047 3.3335 20C3.3335 10.7952 10.7954 3.33333 20.0002 3.33333C29.2048 3.33333 36.6668 10.7952 36.6668 20C36.6668 29.2047 29.2048 36.6667 20.0002 36.6667ZM20.0002 33.3333C27.364 33.3333 33.3335 27.3638 33.3335 20C33.3335 12.6362 27.364 6.66667 20.0002 6.66667C12.6364 6.66667 6.66683 12.6362 6.66683 20C6.66683 27.3638 12.6364 33.3333 20.0002 33.3333ZM21.6668 17.5V25H23.3335V28.3333H16.6668V25H18.3335V20.8333H16.6668V17.5H21.6668ZM22.5002 13.3333C22.5002 14.714 21.3808 15.8333 20.0002 15.8333C18.6195 15.8333 17.5002 14.714 17.5002 13.3333C17.5002 11.9526 18.6195 10.8333 20.0002 10.8333C21.3808 10.8333 22.5002 11.9526 22.5002 13.3333Z" fill="black"/>
</svg>
