<svg width="50" height="50" viewBox="0 0 50 50" fill="none" xmlns="http://www.w3.org/2000/svg">
<path d="M25.0023 4.16667C13.5439 4.16667 4.16895 13.5417 4.16895 25C4.16895 36.4583 13.5439 45.8333 25.0023 45.8333C36.4607 45.8333 45.8357 36.4583 45.8357 25C45.8357 13.5417 36.5648 4.16667 25.0023 4.16667ZM32.8148 34.6875C27.919 31.6667 21.7732 31.04 14.4797 32.7067C13.754 32.9183 13.1273 32.3958 12.9189 31.7708C12.7106 31.04 13.2314 30.4167 13.8564 30.2083C21.7732 28.4358 28.6482 29.1667 34.0648 32.5C34.794 32.8125 34.8963 33.6442 34.5873 34.2708C34.1707 34.8942 33.4415 35.1042 32.8148 34.6875ZM34.8963 29.0625C29.2731 25.625 20.7314 24.5833 14.1689 26.6667C13.3373 26.875 12.3981 26.4583 12.1898 25.625C11.9814 24.7917 12.3981 23.8525 13.2314 23.6442C20.8357 21.3542 30.2107 22.5017 36.669 26.4583C37.2957 26.7725 37.6065 27.8125 37.0873 28.5417C36.5648 29.2708 35.6273 29.5833 34.8963 29.0625ZM13.1273 20.3142C12.0856 20.625 11.0439 20 10.7314 19.0625C10.4189 18.0191 11.0439 16.9792 11.9814 16.6649C19.3773 14.4774 31.5648 14.8941 39.2748 19.4792C40.2107 20 40.5232 21.25 40.0023 22.1875C39.4832 22.9183 38.2315 23.2275 37.2957 22.7083C30.6273 18.75 19.4814 18.3333 13.1273 20.3142Z" fill="black"/>
</svg>
