<svg width="44" height="42" viewBox="0 0 44 42" fill="none" xmlns="http://www.w3.org/2000/svg">
<path d="M12.4736 30.5828C11.9973 28.4363 9.84942 26.6792 8.96741 25.5212C7.20792 23.2112 6.15552 20.2793 6.15552 17.0889C6.15552 9.63633 11.8976 3.59488 18.9809 3.59488C26.0642 3.59488 31.8063 9.63633 31.8063 17.0889C31.8063 20.281 30.7527 23.2143 28.9916 25.525C28.11 26.6814 25.964 28.4366 25.4882 30.5828H12.4736ZM25.3936 33.9563V35.6431C25.3936 37.5062 23.9581 39.0166 22.1873 39.0166H15.7746C14.0037 39.0166 12.5682 37.5062 12.5682 35.6431V33.9563H25.3936ZM20.5841 17.0969V10.3419L13.3698 20.4704H17.3777V27.2174L24.592 17.0969H20.5841Z" fill="black"/>
</svg>
