<svg width="40" height="40" viewBox="0 0 40 40" fill="none" xmlns="http://www.w3.org/2000/svg">
<path d="M33.3333 36.6667H6.66667C5.7462 36.6667 5 35.9205 5 35V5.00001C5 4.07954 5.7462 3.33334 6.66667 3.33334H33.3333C34.2538 3.33334 35 4.07954 35 5.00001V35C35 35.9205 34.2538 36.6667 33.3333 36.6667ZM31.6667 33.3333V6.66668H8.33333V33.3333H31.6667ZM11.6667 10H18.3333V16.6667H11.6667V10ZM11.6667 20H28.3333V23.3333H11.6667V20ZM11.6667 26.6667H28.3333V30H11.6667V26.6667ZM21.6667 11.6667H28.3333V15H21.6667V11.6667Z" fill="black"/>
</svg>
