<svg width="30" height="30" viewBox="0 0 30 30" fill="none" xmlns="http://www.w3.org/2000/svg">
<path d="M15 17.5V27.5H5C5 21.9771 9.47715 17.5 15 17.5ZM15 16.25C10.8562 16.25 7.5 12.8938 7.5 8.75C7.5 4.60625 10.8562 1.25 15 1.25C19.1438 1.25 22.5 4.60625 22.5 8.75C22.5 12.8938 19.1438 16.25 15 16.25ZM18.2432 23.5144C18.1659 23.1889 18.125 22.8493 18.125 22.5C18.125 22.1509 18.1659 21.8113 18.2431 21.4858L17.0036 20.7701L18.2536 18.605L19.494 19.3211C19.9854 18.8564 20.5845 18.5042 21.25 18.3061V16.875H23.75V18.3061C24.4155 18.5042 25.0145 18.8564 25.5059 19.3211L26.7464 18.6049L27.9965 20.77L26.7569 21.4856C26.8341 21.8112 26.875 22.1509 26.875 22.5C26.875 22.8491 26.8341 23.1887 26.7569 23.5142L27.9965 24.2299L26.7465 26.395L25.506 25.6787C25.0146 26.1436 24.4156 26.4957 23.7501 26.6937V28.125H21.2501V26.6939C20.5846 26.4959 19.9855 26.1438 19.4941 25.6789L18.2537 26.3951L17.0036 24.23L18.2432 23.5144ZM22.5 21.25C21.8096 21.25 21.25 21.8096 21.25 22.5C21.25 23.1904 21.8096 23.75 22.5 23.75C23.1904 23.75 23.75 23.1904 23.75 22.5C23.75 21.8096 23.1904 21.25 22.5 21.25Z" fill="black"/>
</svg>
