<svg width="92" height="83" viewBox="0 0 92 83" fill="none" xmlns="http://www.w3.org/2000/svg">
<path d="M4.18182 32.7847H16.7273V82.9666H4.18182C1.87228 82.9666 0 81.0944 0 78.7848V36.9665C0 34.657 1.87228 32.7847 4.18182 32.7847ZM26.3157 27.378L53.0815 0.61244C53.8171 -0.123351 54.9821 -0.206109 55.8143 0.418195L59.3797 3.09222C61.4067 4.61239 62.32 7.20265 61.6948 9.65792L56.8719 28.6029H83.6364C88.2556 28.6029 92 32.3474 92 36.9665V45.7664C92 46.8591 91.7859 47.941 91.3702 48.9509L78.43 80.3768C77.7847 81.9437 76.2576 82.9666 74.5631 82.9666H29.2727C26.9632 82.9666 25.0909 81.0944 25.0909 78.7848V30.3351C25.0909 29.226 25.5315 28.1623 26.3157 27.378Z" fill="#09CBCB"/>
</svg>
