<svg width="25" height="46" viewBox="0 0 25 46" fill="none" xmlns="http://www.w3.org/2000/svg">
<path d="M11.0223 5.86281L15.2275 17.7517L16.0519 20.0773L16.0671 10.0547L16.0859 0.0189168H24.9836L24.9988 22.6485C25.0044 35.1081 24.9911 45.3369 24.9665 45.3558C24.9419 45.3746 24.5317 45.3558 24.059 45.299C21.9982 45.0533 19.2888 44.8075 17.1013 44.7129C16.379 44.679 15.7815 44.641 15.774 44.6335C15.7684 44.626 15.2067 43.0454 14.1575 40.0827L14.1578 40.0748C13.1336 37.1825 11.6336 32.9419 9.69171 27.4471L8.98254 25.4613L8.96754 35.0138C8.95421 44.1079 8.94671 44.6183 8.84838 44.6183C8.50817 44.6183 5.57752 44.8075 4.59815 44.9021C3.95531 44.9588 2.66965 45.091 1.74321 45.2046C0.814875 45.3104 0.0434789 45.3823 0.0283539 45.3671C0.0132289 45.3519 0 35.1404 0 22.6731V0.0037916H0.0107706L0.0094374 0H8.94296L9.0015 0.168271C9.01629 0.199125 9.1365 0.53425 9.32921 1.07673L10.6655 4.78156L11.0246 5.81388L11.0223 5.86281Z" fill="black"/>
</svg>
