<svg width="40" height="40" viewBox="0 0 40 40" fill="none" xmlns="http://www.w3.org/2000/svg">
<path d="M3.33337 33.3333H36.6667V36.6667H3.33337V33.3333ZM6.66671 20H10V31.6667H6.66671V20ZM15 20H18.3334V31.6667H15V20ZM21.6667 20H25V31.6667H21.6667V20ZM30 20H33.3334V31.6667H30V20ZM3.33337 11.6667L20 3.33333L36.6667 11.6667V18.3333H3.33337V11.6667ZM6.66671 13.7268V15H33.3334V13.7268L20 7.06011L6.66671 13.7268ZM20 13.3333C19.0795 13.3333 18.3334 12.5871 18.3334 11.6667C18.3334 10.7462 19.0795 9.99999 20 9.99999C20.9205 9.99999 21.6667 10.7462 21.6667 11.6667C21.6667 12.5871 20.9205 13.3333 20 13.3333Z" fill="black"/>
</svg>
