<svg width="25" height="24" viewBox="0 0 25 24" fill="none" xmlns="http://www.w3.org/2000/svg">
<path d="M3.19129 7.50914C4.9053 4.24092 8.42795 2 12.5 2C15.3077 2 17.6656 2.99095 19.4697 4.60455L16.482 7.47274C15.4025 6.48185 14.0293 5.97727 12.5 5.97727C9.78689 5.97727 7.49045 7.73637 6.6714 10.1C6.46302 10.7 6.34464 11.3409 6.34464 12C6.34464 12.6591 6.46302 13.3 6.6714 13.9C7.49045 16.2636 9.78689 18.0227 12.5 18.0227C13.9015 18.0227 15.0947 17.6682 16.0275 17.0682C17.1306 16.3591 17.8646 15.3 18.106 14.05H12.5V10.1818H22.3105C22.4337 10.8363 22.5 11.5182 22.5 12.2273C22.5 15.2727 21.3636 17.8363 19.3939 19.5773C17.6704 21.1046 15.3125 22 12.5 22C8.42795 22 4.9053 19.7591 3.19129 16.4909C2.48581 15.1409 2.08333 13.6136 2.08333 12C2.08333 10.3864 2.48581 8.85911 3.19129 7.50914Z" fill="black"/>
</svg>
