<svg width="50" height="50" viewBox="0 0 50 50" fill="none" xmlns="http://www.w3.org/2000/svg">
<path d="M24.9999 29.1667V45.8333H8.33325C8.33325 36.6286 15.7952 29.1667 24.9999 29.1667ZM24.9999 27.0833C18.0937 27.0833 12.4999 21.4896 12.4999 14.5833C12.4999 7.67709 18.0937 2.08334 24.9999 2.08334C31.9062 2.08334 37.4999 7.67709 37.4999 14.5833C37.4999 21.4896 31.9062 27.0833 24.9999 27.0833ZM30.4053 39.1906C30.2764 38.6481 30.2083 38.0821 30.2083 37.5C30.2083 36.9181 30.2764 36.3521 30.4051 35.8096L28.3393 34.6169L30.4226 31.0083L32.4899 32.2019C33.3089 31.4273 34.3074 30.8404 35.4166 30.5102V28.125H39.5833V30.5102C40.6924 30.8404 41.6908 31.4273 42.5097 32.2019L44.5772 31.0081L46.6608 34.6167L44.5947 35.8094C44.7235 36.3521 44.7916 36.9181 44.7916 37.5C44.7916 38.0819 44.7235 38.6479 44.5947 39.1904L46.6608 40.3831L44.5774 43.9917L42.5099 42.7979C41.691 43.5727 40.6926 44.1596 39.5835 44.4896V46.875H35.4168V44.4898C34.3076 44.1598 33.3091 43.5729 32.4901 42.7981L30.4228 43.9919L28.3393 40.3833L30.4053 39.1906ZM37.4999 35.4167C36.3493 35.4167 35.4166 36.3494 35.4166 37.5C35.4166 38.6506 36.3493 39.5833 37.4999 39.5833C38.6505 39.5833 39.5833 38.6506 39.5833 37.5C39.5833 36.3494 38.6505 35.4167 37.4999 35.4167Z" fill="black"/>
</svg>
