<svg width="40" height="40" viewBox="0 0 40 40" fill="none" xmlns="http://www.w3.org/2000/svg">
<path d="M19.9999 3.33333C29.2046 3.33333 36.6666 10.7952 36.6666 20C36.6666 29.2047 29.2046 36.6667 19.9999 36.6667C10.7952 36.6667 3.33325 29.2047 3.33325 20C3.33325 10.7952 10.7952 3.33333 19.9999 3.33333ZM22.7824 26.6665H17.2158L14.9175 29.8282L15.8406 32.6718C17.1494 33.1012 18.5476 33.3333 19.9999 33.3333C21.4523 33.3333 22.8504 33.1012 24.1593 32.6718L25.0808 29.8282L22.7824 26.6665ZM8.82248 18.1198L6.67029 19.6825L6.66659 20C6.66659 22.8828 7.58149 25.552 9.13675 27.7328L12.3208 27.7332L14.5241 24.6998L12.8108 19.4165L8.82248 18.1198ZM31.1758 18.1198L27.1874 19.4165L25.4741 24.6998L27.6774 27.7332L30.8631 27.7328C32.4184 25.552 33.3333 22.8828 33.3333 20L33.3283 19.6817L31.1758 18.1198ZM23.8189 7.22165L21.6658 8.78821V12.9832L26.1558 16.2449L29.8874 15.0332L30.8111 12.1947C29.1116 9.84475 26.6646 8.0709 23.8189 7.22165ZM16.1809 7.22165C13.3346 8.07108 10.8872 9.84558 9.1876 12.1963L10.1108 15.0332L13.8425 16.2449L18.3324 12.9832V8.78821L16.1809 7.22165Z" fill="black"/>
</svg>
