<svg width="40" height="40" viewBox="0 0 40 40" fill="none" xmlns="http://www.w3.org/2000/svg">
<path d="M28.3333 33.3333H11.6666V35C11.6666 35.9205 10.9204 36.6667 9.99992 36.6667H6.66659C5.74612 36.6667 4.99992 35.9205 4.99992 35V20H3.33325V13.3333H4.99992V8.33333C4.99992 6.49238 6.4923 5 8.33325 5H31.6666C33.5076 5 34.9999 6.49238 34.9999 8.33333V13.3333H36.6666V20H34.9999V35C34.9999 35.9205 34.2538 36.6667 33.3333 36.6667H29.9999C29.0794 36.6667 28.3333 35.9205 28.3333 35V33.3333ZM8.33325 8.33333V20H31.6666V8.33333H8.33325ZM12.4999 30C13.8806 30 14.9999 28.8807 14.9999 27.5C14.9999 26.1193 13.8806 25 12.4999 25C11.1192 25 9.99992 26.1193 9.99992 27.5C9.99992 28.8807 11.1192 30 12.4999 30ZM27.4999 30C28.8806 30 29.9999 28.8807 29.9999 27.5C29.9999 26.1193 28.8806 25 27.4999 25C26.1193 25 24.9999 26.1193 24.9999 27.5C24.9999 28.8807 26.1193 30 27.4999 30Z" fill="black"/>
</svg>
