<svg width="40" height="40" viewBox="0 0 40 40" fill="none" xmlns="http://www.w3.org/2000/svg">
<path d="M15 6.66666L10 3.33333L5 6.66666V31.6667C5 34.4282 7.23858 36.6667 10 36.6667H33.3333C36.0948 36.6667 38.3333 34.4282 38.3333 31.6667V26.6667H35V6.66666L30 3.33333L25 6.66666L20 3.33333L15 6.66666ZM31.6667 26.6667H11.6667V31.6667C11.6667 32.5872 10.9205 33.3333 10 33.3333C9.07953 33.3333 8.33333 32.5872 8.33333 31.6667V8.45061L10 7.33949L15 10.6728L20 7.33949L25 10.6728L30 7.33949L31.6667 8.45061V26.6667ZM33.3333 33.3333H14.7155C14.8998 32.812 15 32.251 15 31.6667V30H35V31.6667C35 32.5872 34.2538 33.3333 33.3333 33.3333Z" fill="black"/>
</svg>
