<svg width="30" height="30" viewBox="0 0 30 30" fill="none" xmlns="http://www.w3.org/2000/svg">
<path d="M2.66409 17.0385C2.4365 15.6686 2.44401 14.2925 2.6652 12.9619C4.04171 12.9954 5.27968 12.335 5.76081 11.1734C6.24196 10.0118 5.83356 8.66946 4.83658 7.71976C5.62106 6.62247 6.58881 5.6441 7.71839 4.83639C8.66813 5.83395 10.0109 6.2427 11.1728 5.76142C12.3347 5.28015 12.9951 4.04165 12.9613 2.6647C14.3311 2.43711 15.7072 2.44462 17.0379 2.66581C17.0045 4.04231 17.6649 5.28027 18.8265 5.76142C19.988 6.24257 21.3304 5.83416 22.2801 4.83719C23.3774 5.62167 24.3558 6.58941 25.1635 7.719C24.1659 8.66874 23.7571 10.0115 24.2384 11.1734C24.7196 12.3353 25.9581 12.9958 27.3351 12.9619C27.5627 14.3317 27.5553 15.7079 27.334 17.0385C25.9575 17.0051 24.7195 17.6655 24.2384 18.827C23.7572 19.9886 24.1656 21.331 25.1626 22.2806C24.3781 23.378 23.4104 24.3564 22.2809 25.164C21.3311 24.1665 19.9884 23.7577 18.8265 24.239C17.6645 24.7202 17.0041 25.9588 17.0379 27.3358C15.668 27.5634 14.2919 27.5559 12.9614 27.3346C12.9947 25.9581 12.3344 24.7201 11.1728 24.239C10.0112 23.7579 8.66885 24.1663 7.71915 25.1632C6.62186 24.3787 5.64349 23.411 4.83578 22.2815C5.83334 21.3317 6.24209 19.989 5.76081 18.827C5.27954 17.6651 4.04105 17.0048 2.66409 17.0385ZM14.9996 18.7502C17.0706 18.7502 18.7496 17.0713 18.7496 15.0003C18.7496 12.9291 17.0706 11.2502 14.9996 11.2502C12.9285 11.2502 11.2496 12.9291 11.2496 15.0003C11.2496 17.0713 12.9285 18.7502 14.9996 18.7502Z" fill="black"/>
</svg>
