<svg width="40" height="40" viewBox="0 0 40 40" fill="none" xmlns="http://www.w3.org/2000/svg">
<path d="M3.33325 6.65567C3.33325 5.74127 4.0921 5 4.98625 5H35.0136C35.9266 5 36.6666 5.74158 36.6666 6.65567V33.3443C36.6666 34.2587 35.9077 35 35.0136 35H4.98625C4.07334 35 3.33325 34.2585 3.33325 33.3443V6.65567ZM6.66659 8.33333V11.6667H9.99992V8.33333H6.66659ZM29.9999 8.33333V11.6667H33.3333V8.33333H29.9999ZM6.66659 15V18.3333H9.99992V15H6.66659ZM29.9999 15V18.3333H33.3333V15H29.9999ZM6.66659 21.6667V25H9.99992V21.6667H6.66659ZM29.9999 21.6667V25H33.3333V21.6667H29.9999ZM6.66659 28.3333V31.6667H9.99992V28.3333H6.66659ZM29.9999 28.3333V31.6667H33.3333V28.3333H29.9999Z" fill="black"/>
</svg>
