<svg width="40" height="40" viewBox="0 0 40 40" fill="none" xmlns="http://www.w3.org/2000/svg">
<path d="M31.6667 16.6667H33.3333C34.2538 16.6667 35 17.4128 35 18.3333V35C35 35.9205 34.2538 36.6667 33.3333 36.6667H6.66667C5.7462 36.6667 5 35.9205 5 35V18.3333C5 17.4128 5.7462 16.6667 6.66667 16.6667H8.33333V15C8.33333 8.55668 13.5567 3.33333 20 3.33333C26.4433 3.33333 31.6667 8.55668 31.6667 15V16.6667ZM8.33333 20V33.3333H31.6667V20H8.33333ZM18.3333 23.3333H21.6667V30H18.3333V23.3333ZM28.3333 16.6667V15C28.3333 10.3976 24.6023 6.66666 20 6.66666C15.3976 6.66666 11.6667 10.3976 11.6667 15V16.6667H28.3333Z" fill="black"/>
</svg>
