<svg width="40" height="40" viewBox="0 0 40 40" fill="none" xmlns="http://www.w3.org/2000/svg">
<path d="M6.30512 4.70997L20 1.66667L33.6948 4.70997C34.4575 4.87944 35 5.55579 35 6.33696V22.9815C35 26.325 33.329 29.4473 30.547 31.302L20 38.3333L9.453 31.302C6.67102 29.4473 5 26.325 5 22.9815V6.33696C5 5.55579 5.54255 4.87944 6.30512 4.70997ZM8.33333 7.67391V22.9815C8.33333 25.2105 9.44733 27.292 11.302 28.5285L20 34.3272L28.698 28.5285C30.5527 27.292 31.6667 25.2105 31.6667 22.9815V7.67391L20 5.08132L8.33333 7.67391ZM20 18.3333C17.6988 18.3333 15.8333 16.4679 15.8333 14.1667C15.8333 11.8655 17.6988 10 20 10C22.3012 10 24.1667 11.8655 24.1667 14.1667C24.1667 16.4679 22.3012 18.3333 20 18.3333ZM12.5458 26.6667C12.9603 22.9167 16.1395 20 20 20C23.8605 20 27.0397 22.9167 27.4542 26.6667H12.5458Z" fill="black"/>
</svg>
