<svg width="50" height="50" viewBox="0 0 50 50" fill="none" xmlns="http://www.w3.org/2000/svg">
<path d="M24.3197 15.0458C22.4947 15.0458 19.6697 12.9708 16.6947 13.0458C12.7697 13.0958 9.1697 15.3208 7.1447 18.8458C3.0697 25.9208 6.0947 36.3708 10.0697 42.1208C12.0197 44.9208 14.3197 48.0708 17.3697 47.9708C20.2947 47.8458 21.3947 46.0708 24.9447 46.0708C28.4697 46.0708 29.4697 47.9708 32.5697 47.8958C35.7197 47.8458 37.7197 45.0458 39.6447 42.2208C41.8697 38.9708 42.7947 35.8208 42.8447 35.6458C42.7697 35.6208 36.7197 33.2958 36.6447 26.2958C36.5947 20.4458 41.4197 17.6458 41.6447 17.5208C38.8947 13.4958 34.6697 13.0458 33.1947 12.9458C29.3447 12.6458 26.1197 15.0458 24.3197 15.0458ZM30.8197 9.14579C32.4447 7.19579 33.5197 4.47079 33.2197 1.77078C30.8947 1.87078 28.0947 3.32079 26.4197 5.27079C24.9197 6.99579 23.6197 9.77079 23.9697 12.4208C26.5447 12.6208 29.1947 11.0958 30.8197 9.14579Z" fill="black"/>
</svg>
