<svg width="40" height="40" viewBox="0 0 40 40" fill="none" xmlns="http://www.w3.org/2000/svg">
<path d="M28.6667 33.3333L31.6667 35.8333V36.6667H8.33333V35.8333L11.3333 33.3333H8.33333C6.49238 33.3333 5 31.841 5 30V11.6667C5 7.98477 7.98477 5 11.6667 5H28.3333C32.0152 5 35 7.98477 35 11.6667V30C35 31.841 33.5077 33.3333 31.6667 33.3333H28.6667ZM11.6667 8.33333C9.82572 8.33333 8.33333 9.82572 8.33333 11.6667V30H31.6667V11.6667C31.6667 9.82572 30.1743 8.33333 28.3333 8.33333H11.6667ZM20 28.3333C18.159 28.3333 16.6667 26.841 16.6667 25C16.6667 23.159 18.159 21.6667 20 21.6667C21.841 21.6667 23.3333 23.159 23.3333 25C23.3333 26.841 21.841 28.3333 20 28.3333ZM10 11.6667H30V18.3333H10V11.6667Z" fill="black"/>
</svg>
