<svg width="47" height="47" viewBox="0 0 47 47" fill="none" xmlns="http://www.w3.org/2000/svg">
<path d="M33.2923 25.4583V27.4167C33.2923 32.8405 31.9921 38.0798 29.542 42.7808L29.0979 43.6048L25.6769 41.6976C27.9485 37.6225 29.2205 33.06 29.3623 28.3095L29.3756 27.4167V25.4583H33.2923ZM21.5423 19.5833H25.4589V27.4167L25.4481 28.1583C25.2925 33.5844 23.4305 38.7223 20.1783 42.9423L19.7263 43.512L16.6929 41.0341C19.6632 37.3981 21.3742 32.9033 21.5305 28.134L21.5423 27.4167V19.5833ZM23.5006 11.75C28.9083 11.75 33.2923 16.1339 33.2923 21.5417H29.3756C29.3756 18.297 26.7452 15.6667 23.5006 15.6667C20.2558 15.6667 17.6255 18.297 17.6255 21.5417V27.4167C17.6255 31.7943 16.0203 35.9245 13.1782 39.1212L12.7638 39.5715L9.92787 36.8701C12.2068 34.4776 13.5536 31.3564 13.6962 28.0095L13.7088 27.4167V21.5417C13.7088 16.1339 18.0927 11.75 23.5006 11.75ZM23.5006 3.91667C33.2345 3.91667 41.1256 11.8077 41.1256 21.5417V27.4167C41.1256 30.7417 40.7304 34.0161 39.9569 37.1893L39.685 38.2433L35.9058 37.2146C36.6717 34.4005 37.1055 31.4916 37.1925 28.5298L37.2089 27.4167V21.5417C37.2089 13.9708 31.0713 7.83333 23.5006 7.83333C20.4213 7.83333 17.5792 8.84855 15.2908 10.5625L12.5002 7.77006C15.5152 5.35861 19.3395 3.91667 23.5006 3.91667ZM9.72888 10.5414L12.5214 13.3319C10.8952 15.5032 9.898 18.1728 9.80011 21.0703L9.7909 21.5397L9.79907 25.4583C9.79907 27.6507 9.28232 29.7718 8.30848 31.6804L8.00269 32.2465L4.60132 30.3046C5.34408 29.0035 5.77859 27.55 5.86597 26.031L5.8824 25.4583L5.88207 21.5417C5.87549 17.3806 7.31743 13.5564 9.72888 10.5414Z" fill="black"/>
</svg>
