<svg width="294" height="29" viewBox="0 0 294 29" fill="none" xmlns="http://www.w3.org/2000/svg">
<rect y="0.0889893" width="294" height="28" rx="14" fill="#FCFCFC"/>
<path d="M275.48 17.0385L279.597 20.8698L278.555 22.4071L274.438 18.5758C273.269 19.9447 271.693 20.8629 269.89 21.0672C265.672 21.5453 261.796 17.9384 261.238 13.016C260.68 8.09365 263.651 3.7107 267.869 3.23263C272.087 2.75457 275.963 6.36152 276.521 11.2839C276.759 13.3884 276.353 15.3942 275.48 17.0385ZM273.693 16.4964C274.59 15.1301 275.036 13.3545 274.823 11.4763C274.388 7.64437 271.377 4.84209 268.093 5.21426C264.81 5.58642 262.502 8.99158 262.936 12.8235C263.37 16.6555 266.382 19.4578 269.665 19.0856C271.275 18.9032 272.65 17.9922 273.583 16.6594L273.693 16.4964Z" fill="black"/>
</svg>
